<svg xmlns="http://www.w3.org/2000/svg" xmlns:xlink="http://www.w3.org/1999/xlink" contentStyleType="text/css" data-diagram-type="CLASS" height="508px" preserveAspectRatio="none" style="width:961px;height:508px;background:#1B1B1B;" version="1.1" viewBox="0 0 961 508" width="961px" zoomAndPan="magnify"><?plantuml 1.2026.3beta5?><defs/><g><rect fill="#1B1B1B" height="508" style="stroke:none;stroke-width:1;" width="961" x="0" y="0"/><!--class CellType--><g class="entity" data-qualified-name="CellType" data-source-line="1" id="ent0002"><rect fill="#313139" height="48" rx="2.5" ry="2.5" style="stroke:#E7E7E7;stroke-width:0.5;" width="92.5049" x="345.07" y="445.08"/><ellipse cx="360.07" cy="461.08" fill="#852D19" rx="11" ry="11" style="stroke:#E7E7E7;stroke-width:1;"/><path d="M364.1794,467.08 L356.4606,467.08 L356.4606,454.6894 L364.1794,454.6894 L364.1794,456.8456 L358.9138,456.8456 L358.9138,459.5175 L363.6794,459.5175 L363.6794,461.6738 L358.9138,461.6738 L358.9138,464.9238 L364.1794,464.9238 L364.1794,467.08 Z " fill="#FFFFFF"/><text fill="#FFFFFF" font-family="sans-serif" font-size="14" lengthAdjust="spacing" textLength="60.5049" x="374.07" y="465.9267">CellType</text><line style="stroke:#E7E7E7;stroke-width:0.5;" x1="346.07" x2="436.5749" y1="477.08" y2="477.08"/><line style="stroke:#E7E7E7;stroke-width:0.5;" x1="346.07" x2="436.5749" y1="485.08" y2="485.08"/></g><!--class OreDeposit--><g class="entity" data-qualified-name="OreDeposit" data-source-line="5" id="ent0003"><rect fill="#313139" height="80.5938" rx="2.5" ry="2.5" style="stroke:#E7E7E7;stroke-width:0.5;" width="309.124" x="45.76" y="304.49"/><ellipse cx="156.6184" cy="320.49" fill="#2E5233" rx="11" ry="11" style="stroke:#E7E7E7;stroke-width:1;"/><path d="M159.5871,326.1306 Q159.009,326.4275 158.3684,326.5681 Q157.7278,326.7244 157.0246,326.7244 Q154.5246,326.7244 153.1965,325.0837 Q151.884,323.4275 151.884,320.3025 Q151.884,317.1775 153.1965,315.5212 Q154.5246,313.865 157.0246,313.865 Q157.7278,313.865 158.3684,314.0212 Q159.0246,314.1775 159.5871,314.4744 L159.5871,317.1931 Q158.9621,316.615 158.3684,316.3494 Q157.7746,316.0681 157.1496,316.0681 Q155.8059,316.0681 155.1184,317.1462 Q154.4309,318.2087 154.4309,320.3025 Q154.4309,322.3962 155.1184,323.4744 Q155.8059,324.5369 157.1496,324.5369 Q157.7746,324.5369 158.3684,324.2712 Q158.9621,323.99 159.5871,323.4119 L159.5871,326.1306 Z " fill="#FFFFFF"/><text fill="#FFFFFF" font-family="sans-serif" font-size="14" lengthAdjust="spacing" textLength="78.9072" x="177.1184" y="325.3367">OreDeposit</text><line style="stroke:#E7E7E7;stroke-width:0.5;" x1="46.76" x2="353.884" y1="336.49" y2="336.49"/><g data-visibility-modifier="PROTECTED_FIELD"><polygon fill="none" points="56.76,345.1384,60.76,349.1384,56.76,353.1384,52.76,349.1384" style="stroke:#B38D22;stroke-width:1;"/></g><text fill="#FFFFFF" font-family="sans-serif" font-size="14" lengthAdjust="spacing" textLength="210.7178" x="65.76" y="353.4851">List&lt;Vector2Int&gt; orePositions</text><line style="stroke:#E7E7E7;stroke-width:0.5;" x1="46.76" x2="353.884" y1="360.7869" y2="360.7869"/><g data-visibility-modifier="PUBLIC_METHOD"><ellipse cx="56.76" cy="374.4353" fill="#84BE84" rx="3" ry="3" style="stroke:#038048;stroke-width:1;"/></g><text fill="#FFFFFF" font-family="sans-serif" font-size="14" lengthAdjust="spacing" textLength="283.124" x="65.76" y="377.782">void List&lt;Vector2Int&gt; GetOrePositions()</text></g><!--class RandomWalk--><g class="entity" data-qualified-name="RandomWalk" data-source-line="11" id="ent0004"><rect fill="#313139" height="96.8906" rx="2.5" ry="2.5" style="stroke:#E7E7E7;stroke-width:0.5;" width="245.7549" x="77.45" y="147.6"/><ellipse cx="149.7332" cy="163.6" fill="#2E5233" rx="11" ry="11" style="stroke:#E7E7E7;stroke-width:1;"/><path d="M152.702,169.2406 Q152.1238,169.5375 151.4832,169.6781 Q150.8426,169.8344 150.1395,169.8344 Q147.6395,169.8344 146.3113,168.1937 Q144.9988,166.5375 144.9988,163.4125 Q144.9988,160.2875 146.3113,158.6312 Q147.6395,156.975 150.1395,156.975 Q150.8426,156.975 151.4832,157.1312 Q152.1395,157.2875 152.702,157.5844 L152.702,160.3031 Q152.077,159.725 151.4832,159.4594 Q150.8895,159.1781 150.2645,159.1781 Q148.9207,159.1781 148.2332,160.2562 Q147.5457,161.3187 147.5457,163.4125 Q147.5457,165.5062 148.2332,166.5844 Q148.9207,167.6469 150.2645,167.6469 Q150.8895,167.6469 151.4832,167.3812 Q152.077,167.1 152.702,166.5219 L152.702,169.2406 Z " fill="#FFFFFF"/><text fill="#FFFFFF" font-family="sans-serif" font-size="14" lengthAdjust="spacing" textLength="92.6885" x="170.2332" y="168.4467">RandomWalk</text><line style="stroke:#E7E7E7;stroke-width:0.5;" x1="78.45" x2="322.2049" y1="179.6" y2="179.6"/><g data-visibility-modifier="PROTECTED_FIELD"><polygon fill="none" points="88.45,188.2484,92.45,192.2484,88.45,196.2484,84.45,192.2484" style="stroke:#B38D22;stroke-width:1;"/></g><text fill="#FFFFFF" font-family="sans-serif" font-size="14" lengthAdjust="spacing" textLength="219.7549" x="97.45" y="196.5951">List&lt;OreDeposit&gt; oreDeposits;</text><line style="stroke:#E7E7E7;stroke-width:0.5;" x1="78.45" x2="322.2049" y1="203.8969" y2="203.8969"/><g data-visibility-modifier="PUBLIC_METHOD"><ellipse cx="88.45" cy="217.5453" fill="#84BE84" rx="3" ry="3" style="stroke:#038048;stroke-width:1;"/></g><text fill="#FFFFFF" font-family="sans-serif" font-size="14" lengthAdjust="spacing" textLength="164.1719" x="97.45" y="220.892">RandomWalk (int seed)</text><g data-visibility-modifier="PUBLIC_METHOD"><ellipse cx="88.45" cy="233.8422" fill="#84BE84" rx="3" ry="3" style="stroke:#038048;stroke-width:1;"/></g><text fill="#FFFFFF" font-family="sans-serif" font-size="14" lengthAdjust="spacing" textLength="155.9072" x="97.45" y="237.1889">CellType [,] GetCave()</text></g><!--class CaveCellularAutomate--><g class="entity" data-qualified-name="CaveCellularAutomate" data-source-line="19" id="ent0005"><rect fill="#313139" height="80.5938" rx="2.5" ry="2.5" style="stroke:#E7E7E7;stroke-width:0.5;" width="385.8438" x="389.4" y="304.49"/><ellipse cx="499.4005" cy="320.49" fill="#2E5233" rx="11" ry="11" style="stroke:#E7E7E7;stroke-width:1;"/><path d="M502.3692,326.1306 Q501.7911,326.4275 501.1505,326.5681 Q500.5099,326.7244 499.8067,326.7244 Q497.3067,326.7244 495.9786,325.0837 Q494.6661,323.4275 494.6661,320.3025 Q494.6661,317.1775 495.9786,315.5212 Q497.3067,313.865 499.8067,313.865 Q500.5099,313.865 501.1505,314.0212 Q501.8067,314.1775 502.3692,314.4744 L502.3692,317.1931 Q501.7442,316.615 501.1505,316.3494 Q500.5567,316.0681 499.9317,316.0681 Q498.588,316.0681 497.9005,317.1462 Q497.213,318.2087 497.213,320.3025 Q497.213,322.3962 497.9005,323.4744 Q498.588,324.5369 499.9317,324.5369 Q500.5567,324.5369 501.1505,324.2712 Q501.7442,323.99 502.3692,323.4119 L502.3692,326.1306 Z " fill="#FFFFFF"/><text fill="#FFFFFF" font-family="sans-serif" font-size="14" lengthAdjust="spacing" textLength="157.3428" x="519.9005" y="325.3367">CaveCellularAutomate</text><line style="stroke:#E7E7E7;stroke-width:0.5;" x1="390.4" x2="774.2438" y1="336.49" y2="336.49"/><line style="stroke:#E7E7E7;stroke-width:0.5;" x1="390.4" x2="774.2438" y1="344.49" y2="344.49"/><g data-visibility-modifier="PUBLIC_METHOD"><ellipse cx="400.4" cy="358.1384" fill="#84BE84" rx="3" ry="3" style="stroke:#038048;stroke-width:1;"/></g><text fill="#FFFFFF" font-family="sans-serif" font-size="14" lengthAdjust="spacing" textLength="359.8438" x="409.4" y="361.4851">CaveCellulareAutomate(CellType [,] cave, int seed)</text><g data-visibility-modifier="PUBLIC_METHOD"><ellipse cx="400.4" cy="374.4353" fill="#84BE84" rx="3" ry="3" style="stroke:#038048;stroke-width:1;"/></g><text fill="#FFFFFF" font-family="sans-serif" font-size="14" lengthAdjust="spacing" textLength="155.9072" x="409.4" y="377.782">CellType [,] GetCave()</text></g><!--class CaveVisualisation--><g class="entity" data-qualified-name="CaveVisualisation" data-source-line="25" id="ent0006"><rect fill="#313139" height="64.2969" rx="2.5" ry="2.5" style="stroke:#E7E7E7;stroke-width:0.5;" width="286.1074" x="660.27" y="163.89"/><ellipse cx="737.1059" cy="179.89" fill="#2E5233" rx="11" ry="11" style="stroke:#E7E7E7;stroke-width:1;"/><path d="M740.0747,185.5306 Q739.4966,185.8275 738.8559,185.9681 Q738.2153,186.1244 737.5122,186.1244 Q735.0122,186.1244 733.6841,184.4838 Q732.3716,182.8275 732.3716,179.7025 Q732.3716,176.5775 733.6841,174.9213 Q735.0122,173.265 737.5122,173.265 Q738.2153,173.265 738.8559,173.4213 Q739.5122,173.5775 740.0747,173.8744 L740.0747,176.5931 Q739.4497,176.015 738.8559,175.7494 Q738.2622,175.4681 737.6372,175.4681 Q736.2934,175.4681 735.6059,176.5463 Q734.9184,177.6088 734.9184,179.7025 Q734.9184,181.7963 735.6059,182.8744 Q736.2934,183.9369 737.6372,183.9369 Q738.2622,183.9369 738.8559,183.6713 Q739.4497,183.39 740.0747,182.8119 L740.0747,185.5306 Z " fill="#FFFFFF"/><text fill="#FFFFFF" font-family="sans-serif" font-size="14" lengthAdjust="spacing" textLength="123.9355" x="757.6059" y="184.7367">CaveVisualisation</text><line style="stroke:#E7E7E7;stroke-width:0.5;" x1="661.27" x2="945.3774" y1="195.89" y2="195.89"/><line style="stroke:#E7E7E7;stroke-width:0.5;" x1="661.27" x2="945.3774" y1="203.89" y2="203.89"/><g data-visibility-modifier="PUBLIC_METHOD"><ellipse cx="671.27" cy="217.5384" fill="#84BE84" rx="3" ry="3" style="stroke:#038048;stroke-width:1;"/></g><text fill="#FFFFFF" font-family="sans-serif" font-size="14" lengthAdjust="spacing" textLength="260.1074" x="680.27" y="220.8851">void VisualiseCave(CellType [,] cave)</text></g><!--class CaveManager--><g class="entity" data-qualified-name="CaveManager" data-source-line="30" id="ent0007"><rect fill="#313139" height="80.5938" rx="2.5" ry="2.5" style="stroke:#E7E7E7;stroke-width:0.5;" width="325.0313" x="419.81" y="7"/><ellipse cx="529.7661" cy="23" fill="#2E5233" rx="11" ry="11" style="stroke:#E7E7E7;stroke-width:1;"/><path d="M532.7348,28.6406 Q532.1567,28.9375 531.5161,29.0781 Q530.8754,29.2344 530.1723,29.2344 Q527.6723,29.2344 526.3442,27.5938 Q525.0317,25.9375 525.0317,22.8125 Q525.0317,19.6875 526.3442,18.0313 Q527.6723,16.375 530.1723,16.375 Q530.8754,16.375 531.5161,16.5313 Q532.1723,16.6875 532.7348,16.9844 L532.7348,19.7031 Q532.1098,19.125 531.5161,18.8594 Q530.9223,18.5781 530.2973,18.5781 Q528.9536,18.5781 528.2661,19.6563 Q527.5786,20.7188 527.5786,22.8125 Q527.5786,24.9063 528.2661,25.9844 Q528.9536,27.0469 530.2973,27.0469 Q530.9223,27.0469 531.5161,26.7813 Q532.1098,26.5 532.7348,25.9219 L532.7348,28.6406 Z " fill="#FFFFFF"/><text fill="#FFFFFF" font-family="sans-serif" font-size="14" lengthAdjust="spacing" textLength="96.6191" x="550.2661" y="27.8467">CaveManager</text><line style="stroke:#E7E7E7;stroke-width:0.5;" x1="420.81" x2="743.8413" y1="39" y2="39"/><g data-visibility-modifier="PROTECTED_FIELD"><polygon fill="none" points="430.81,47.6484,434.81,51.6484,430.81,55.6484,426.81,51.6484" style="stroke:#B38D22;stroke-width:1;"/></g><text fill="#FFFFFF" font-family="sans-serif" font-size="14" lengthAdjust="spacing" textLength="185.8555" x="439.81" y="55.9951">RandomWalk randomWalk</text><g data-visibility-modifier="PROTECTED_FIELD"><polygon fill="none" points="430.81,63.9453,434.81,67.9453,430.81,71.9453,426.81,67.9453" style="stroke:#B38D22;stroke-width:1;"/></g><text fill="#FFFFFF" font-family="sans-serif" font-size="14" lengthAdjust="spacing" textLength="299.0313" x="439.81" y="72.292">CaveCellulareAutomate cellulareAutomate</text><line style="stroke:#E7E7E7;stroke-width:0.5;" x1="420.81" x2="743.8413" y1="79.5938" y2="79.5938"/></g><!--link RandomWalk to CellType--><g class="link" data-entity-1="ent0004" data-entity-2="ent0002" data-link-type="dependency" data-source-line="37" id="lnk8"><path codeLine="37" d="M87.14,244.93 C63.63,260.37 41.9,280.01 28.33,304.49 C10.96,335.81 6,357.07 28.33,385.08 C67.41,434.11 249.7439,455.965 338.6639,463.925" fill="none" id="RandomWalk-to-CellType" style="stroke:#E7E7E7;stroke-width:1;"/><polygon fill="#E7E7E7" points="344.64,464.46,336.0325,459.6735,339.6599,464.0142,335.3192,467.6416,344.64,464.46" style="stroke:#E7E7E7;stroke-width:1;"/></g><!--link RandomWalk to OreDeposit--><g class="link" data-entity-1="ent0004" data-entity-2="ent0003" data-link-type="composition" data-source-line="38" id="lnk9"><path codeLine="38" d="M200.33,256.68 C200.33,275.93 200.33,279.88 200.33,298.23" fill="none" id="RandomWalk-OreDeposit" style="stroke:#E7E7E7;stroke-width:1;"/><polygon fill="#E7E7E7" points="200.33,244.68,196.33,250.68,200.33,256.68,204.33,250.68,200.33,244.68" style="stroke:#E7E7E7;stroke-width:1;"/><polygon fill="#E7E7E7" points="200.33,304.23,204.33,295.23,200.33,299.23,196.33,295.23,200.33,304.23" style="stroke:#E7E7E7;stroke-width:1;"/></g><!--link CaveCellularAutomate to CellType--><g class="link" data-entity-1="ent0005" data-entity-2="ent0002" data-link-type="dependency" data-source-line="40" id="lnk10"><path codeLine="40" d="M520.31,385.49 C489.81,405.02 459.1537,424.6557 433.0437,441.3657" fill="none" id="CaveCellularAutomate-to-CellType" style="stroke:#E7E7E7;stroke-width:1;"/><polygon fill="#E7E7E7" points="427.99,444.6,437.7267,443.1177,432.2014,441.9048,433.4143,436.3795,427.99,444.6" style="stroke:#E7E7E7;stroke-width:1;"/></g><!--link CaveVisualisation to CellType--><g class="link" data-entity-1="ent0006" data-entity-2="ent0002" data-link-type="dependency" data-source-line="42" id="lnk11"><path codeLine="42" d="M811.96,228.6 C821.14,269.81 829.74,341.78 792.33,385.08 C746.49,438.14 539.2055,458.2931 443.7355,464.9431" fill="none" id="CaveVisualisation-to-CellType" style="stroke:#E7E7E7;stroke-width:1;"/><polygon fill="#E7E7E7" points="437.75,465.36,447.0062,468.7249,442.7379,465.0126,446.4503,460.7443,437.75,465.36" style="stroke:#E7E7E7;stroke-width:1;"/></g><!--link CaveManager to RandomWalk--><g class="link" data-entity-1="ent0007" data-entity-2="ent0004" data-link-type="dependency" data-source-line="44" id="lnk12"><path codeLine="44" d="M478.95,88.01 C431,106.43 379.2512,126.309 329.0712,145.579" fill="none" id="CaveManager-to-RandomWalk" style="stroke:#E7E7E7;stroke-width:1;"/><polygon fill="#E7E7E7" points="323.47,147.73,333.3058,148.2377,328.1377,145.9375,330.4378,140.7694,323.47,147.73" style="stroke:#E7E7E7;stroke-width:1;"/></g><!--link CaveManager to CaveCellularAutomate--><g class="link" data-entity-1="ent0007" data-entity-2="ent0005" data-link-type="dependency" data-source-line="45" id="lnk13"><path codeLine="45" d="M582.33,87.84 C582.33,144.3 582.33,241.41 582.33,298" fill="none" id="CaveManager-to-CaveCellularAutomate" style="stroke:#E7E7E7;stroke-width:1;"/><polygon fill="#E7E7E7" points="582.33,304,586.33,295,582.33,299,578.33,295,582.33,304" style="stroke:#E7E7E7;stroke-width:1;"/></g><!--link CaveManager to CaveVisualisation--><g class="link" data-entity-1="ent0007" data-entity-2="ent0006" data-link-type="dependency" data-source-line="46" id="lnk14"><path codeLine="46" d="M642.13,88.01 C677.8,111.69 717.4619,138.0205 750.7219,160.1105" fill="none" id="CaveManager-to-CaveVisualisation" style="stroke:#E7E7E7;stroke-width:1;"/><polygon fill="#E7E7E7" points="755.72,163.43,750.4359,155.1187,751.5549,160.6637,746.0099,161.7828,755.72,163.43" style="stroke:#E7E7E7;stroke-width:1;"/></g><!--link OreDeposit to CellType--><g class="link" data-entity-1="ent0003" data-entity-2="ent0002" data-link-type="dependency" data-source-line="48" id="lnk15"><path codeLine="48" d="M262.34,385.49 C292.84,405.02 323.4963,424.6557 349.6063,441.3657" fill="none" id="OreDeposit-to-CellType" style="stroke:#E7E7E7;stroke-width:1;"/><polygon fill="#E7E7E7" points="354.66,444.6,349.2357,436.3795,350.4486,441.9048,344.9233,443.1177,354.66,444.6" style="stroke:#E7E7E7;stroke-width:1;"/></g><?plantuml-src bL71IWCn5Bo_htZGozQs5wzAGIg8e5H4wa4yF7OV9PXDIf8jbD9_xoPqIRARYxTaPZAJUOzLr-A6fVmw7HZES06e9LcBMyFFVD1Mk1wTuPkmxd77jTFc_bMvDMh37vuLMbbOu56BPYfwORTDTDKy-d-IQdJxJV8l-iVCu7yxsmVe0w8UAw4SMkPctkF3t_5d-UlpDdJaDCVVlQQJP9uwfrjolkSY8tXWgiokxYLB_6_QJjYEfB3aEuUeC9m1vl1caZCoUIT5UpPXDabr4wSsApV0UenuOqWyLgjrt7Y2ttaYMJkKHfU_XadV0d-h4fXawsEgkAYIA9yln1zdsLS0?></g></svg>